<svg version="1.2" xmlns="http://www.w3.org/2000/svg" viewBox="0 0 256 257" width="256" height="257">
	<title>woocommerce-logo-svg</title>
	<style>
		.s0 { fill: #000000 } 
		.s1 { fill: #ffffff } 
	</style>
	<path id="Layer" class="s0" d="m23.8 52h208.3c13.2 0 23.9 10.7 23.9 23.9v79.5c0 13.2-10.7 23.9-23.9 23.9h-74.7l10.3 25.1-45.1-25.1h-98.7c-13.2 0-23.9-10.7-23.9-23.9v-79.5c-0.1-13.1 10.6-23.9 23.8-23.9z"/>
	<path id="Layer" fill-rule="evenodd" class="s1" d="m14.6 73.8c1.4-2 3.6-3.1 6.5-3.3q8-0.6 9.1 7.5c3.2 21.8 6.8 40.2 10.5 55.3l22.8-43.4q3.1-6 7.8-6.3c4.6-0.3 7.4 2.6 8.5 8.8 2.6 13.8 6 25.6 9.9 35.6 2.7-26.5 7.3-45.5 13.7-57.3 1.6-2.9 3.9-4.3 6.9-4.5 2.4-0.3 4.6 0.5 6.6 2 2 1.6 3 3.6 3.2 6 0.1 1.8-0.2 3.4-1 5-4.1 7.5-7.4 20-10.1 37.5-2.6 17-3.6 30.2-2.9 39.7q0.3 3.9-1.3 6.8c-1.2 2.3-3.1 3.6-5.5 3.8-2.7 0.2-5.5-1-8.2-3.9-9.7-9.8-17.4-24.6-23-44.3q-10.2 20-15 30c-6.2 11.7-11.4 17.8-15.7 18.1-2.8 0.2-5.2-2.2-7.3-7.2q-8-20.4-17.2-79c-0.4-2.7 0.2-5.1 1.7-7zm228.6 36.9c0 10.7-2.7 20.5-8.1 29.4-6.3 10.4-14.4 15.6-24.5 15.6q-2.6 0-5.6-0.6c-7.4-1.5-12.9-5.5-16.6-12q-5-8.6-5-20.7 0-16 8.1-29.3c6.3-10.4 14.5-15.6 24.4-15.6q2.7 0 5.7 0.6c7.4 1.6 12.9 5.5 16.6 12.1 3.3 5.6 5.1 12.4 5 20.5zm-17.4 0.6c0-3-0.6-6.2-1.8-9.5-1.6-4-3.7-6.2-6.2-6.7-3.7-0.7-7.4 1.3-10.8 6.4-2.8 4-4.6 8.1-5.5 12.4-0.5 2.4-0.7 5-0.7 7.6 0 3 0.6 6.3 1.8 9.5 1.6 4 3.7 6.2 6.2 6.7 2.6 0.6 5.4-0.6 8.4-3.3 3.8-3.4 6.4-8.5 7.9-15.4 0.5-2.4 0.7-5 0.7-7.7zm-47.7-0.6c0 10.7-2.7 20.5-8.2 29.4-6.2 10.4-14.3 15.6-24.4 15.6q-2.7 0-5.6-0.6c-7.4-1.5-12.9-5.5-16.7-12q-5-8.6-5-20.7 0-16 8.1-29.3c6.4-10.4 14.5-15.6 24.5-15.6q2.7 0 5.6 0.6c7.3 1.6 12.9 5.5 16.7 12.1 3.3 5.6 5 12.4 5 20.5zm-17.5 0.6c0-3-0.6-6.2-1.9-9.5-1.6-4-3.6-6.2-6.1-6.7-3.8-0.7-7.4 1.3-10.9 6.4-2.8 4-4.5 8.1-5.5 12.4-0.5 2.4-0.7 5-0.7 7.6 0 3 0.6 6.3 1.9 9.5 1.5 4 3.6 6.2 6.1 6.7 2.6 0.6 5.4-0.6 8.4-3.3 3.9-3.4 6.5-8.5 8-15.4 0.5-2.4 0.8-5 0.7-7.7z"/>
</svg>